<?xml version="1.0" encoding="utf-8"?>
<!-- Generator: Adobe Illustrator 16.0.0, SVG Export Plug-In . SVG Version: 6.00 Build 0)  -->
<!DOCTYPE svg PUBLIC "-//W3C//DTD SVG 1.1//EN" "http://www.w3.org/Graphics/SVG/1.1/DTD/svg11.dtd">
<svg version="1.1" id="Layer_1" xmlns="http://www.w3.org/2000/svg" xmlns:xlink="http://www.w3.org/1999/xlink" x="0px" y="0px"
	 width="529.036px" height="625.856px" viewBox="0 0 529.036 625.856" enable-background="new 0 0 529.036 625.856"
	 xml:space="preserve">
<metadata><?xpacket begin="﻿" id="W5M0MpCehiHzreSzNTczkc9d"?>
<x:xmpmeta xmlns:x="adobe:ns:meta/" x:xmptk="Adobe XMP Core 5.3-c011 66.145661, 2012/02/06-14:56:27        ">
   <rdf:RDF xmlns:rdf="http://www.w3.org/1999/02/22-rdf-syntax-ns#">
      <rdf:Description rdf:about=""
            xmlns:xmp="http://ns.adobe.com/xap/1.0/"
            xmlns:xmpGImg="http://ns.adobe.com/xap/1.0/g/img/">
         <xmp:CreatorTool>Adobe Illustrator CS6 (Windows)</xmp:CreatorTool>
         <xmp:CreateDate>2023-12-30T19:13:11+01:00</xmp:CreateDate>
         <xmp:Thumbnails>
            <rdf:Alt>
               <rdf:li rdf:parseType="Resource">
                  <xmpGImg:width>216</xmpGImg:width>
                  <xmpGImg:height>256</xmpGImg:height>
                  <xmpGImg:format>JPEG</xmpGImg:format>
                  <xmpGImg:image>/9j/4AAQSkZJRgABAgEASABIAAD/7QAsUGhvdG9zaG9wIDMuMAA4QklNA+0AAAAAABAASAAAAAEA&#xA;AQBIAAAAAQAB/+4ADkFkb2JlAGTAAAAAAf/bAIQABgQEBAUEBgUFBgkGBQYJCwgGBggLDAoKCwoK&#xA;DBAMDAwMDAwQDA4PEA8ODBMTFBQTExwbGxscHx8fHx8fHx8fHwEHBwcNDA0YEBAYGhURFRofHx8f&#xA;Hx8fHx8fHx8fHx8fHx8fHx8fHx8fHx8fHx8fHx8fHx8fHx8fHx8fHx8fHx8f/8AAEQgBAADYAwER&#xA;AAIRAQMRAf/EAaIAAAAHAQEBAQEAAAAAAAAAAAQFAwIGAQAHCAkKCwEAAgIDAQEBAQEAAAAAAAAA&#xA;AQACAwQFBgcICQoLEAACAQMDAgQCBgcDBAIGAnMBAgMRBAAFIRIxQVEGE2EicYEUMpGhBxWxQiPB&#xA;UtHhMxZi8CRygvElQzRTkqKyY3PCNUQnk6OzNhdUZHTD0uIIJoMJChgZhJRFRqS0VtNVKBry4/PE&#xA;1OT0ZXWFlaW1xdXl9WZ2hpamtsbW5vY3R1dnd4eXp7fH1+f3OEhYaHiImKi4yNjo+Ck5SVlpeYmZ&#xA;qbnJ2en5KjpKWmp6ipqqusra6voRAAICAQIDBQUEBQYECAMDbQEAAhEDBCESMUEFURNhIgZxgZEy&#xA;obHwFMHR4SNCFVJicvEzJDRDghaSUyWiY7LCB3PSNeJEgxdUkwgJChgZJjZFGidkdFU38qOzwygp&#xA;0+PzhJSktMTU5PRldYWVpbXF1eX1RlZmdoaWprbG1ub2R1dnd4eXp7fH1+f3OEhYaHiImKi4yNjo&#xA;+DlJWWl5iZmpucnZ6fkqOkpaanqKmqq6ytrq+v/aAAwDAQACEQMRAD8A9U4q7FXYq7FXYq7FXYq7&#xA;FUJqmr6VpNo15ql5DY2ifanuJFjQHwqxG/thAtSXlXmf/nJ3yJpjNDpEM+tzr0eMehBUdvUkHP7o&#xA;yMtjgJ5tZyB5frv/ADlB+YN8WXTIrTSYjXg0cfryj5tNyQ/8ixlowBichYPqf5pfmNqZJu/Md+Vb&#xA;7UcU7woe/wBiIov4ZYIRHRjxFjt1f312eV1cSztWtZXZzUCn7RPbJUxUMVRFrqF/aGtrcy25rWsT&#xA;sm5FD9kjGlZDpv5pfmNppBtfMd+AOiSzvMg7/YlLr+GRMInoy4izbRP+cn/zEsiq6ilpq0f7Zli9&#xA;GQ/JoSiD/gMrOCLIZC9L8tf85R+StQKxa1aXGjSt1k/3qgH+zjAk/wCSeVywHoyGQPV9F8w6Hrlp&#xA;9b0e/gv7faslvIsgUns1DVT7HKSCObMG0wwJdirsVdirsVdirsVdirsVdirsVdirsVdiqX675h0T&#xA;QdPfUNZvYrGzTYyzNxqf5VHVm9lFcIBPJBNPAvPX/OUsz+pZ+TLT0l3X9K3igt84oN1HsXr/AKuZ&#xA;EcHe1nJ3PDNc8x69r14bzWb+e/uegkncvxB7IDso9l2y8ADk1k2gY4ZZTSNCxHWg6V8cjkyxgLkQ&#xA;HI02jzZ5cOKMpy8haYxaGTEJJbmNGP8AulQ7yA177KlPk2azL2zhj9Nyer0nsLrshHicOMeZs/If&#xA;rXLpNuFozuX/AJhQD7qH9eYE+3Z/wxA9+/6npMH/AAPNOB+8yzl/VAj9/EqR6bZrXknqV/mJ2/4E&#xA;jKD2znPd8nYQ9hOzxz4z75fqAVPqVh/yzr/wUn/NWQ/lfUd/2Bv/ANBXZv8AMP8AppfrWvp9ky0W&#xA;IIf5lZq/8MThj2xnHUH4MMnsP2dIbRlH3SP6bUZNIgIHpu6nuWo36guZUO3Z/wAUQfs/W6nP/wAD&#xA;vCf7vLKPvAl93CoS6RKKmJw4HQH4WP6x+OZmLtrFL6gY/b+Pk6LV+wOsxi8coZP9ift2/wBkhJre&#xA;aE0kQrvQHsaeB6HNnizwyC4kF5LV9n59MaywlD3j9PIojStY1XSLxL3S7uayu4/sTwO0bj2qpG3t&#xA;lpFuJb2zyL/zlFq1n6dn5vtf0hbii/pG2CpcKPF4/hjk+jj9OUSwDozGTvfQflnzZ5d8z6cuoaHf&#xA;R3tsaB+Bo6Mf2ZENHRvZhmNKJHNtBtNsCXYq7FXYq7FXYq7FXYq7FXYq7FXln5qfnxoXk/1dM0wL&#xA;qfmJaq0AP7i3b/i9h+1/kLv4lctx4ifcwlOny15q84eY/NWpNqGuXr3c+4jUmkcak14xoPhRfl9O&#xA;ZcYgcmkm0tt7Oef7AovdzsMxtTrceEeo793V3HZXYOq1x/dR9PWR2iPj+gWUxh0y3j3esje+w+4f&#xA;xzQajtnJLaHpH2vpPZnsJpcNHOTll8o/LmfifgiwAAFUAKOgGwH0ZqZzlI3I2Xs8Gnx4o8OOIjHu&#xA;AofY3kG52Kro45JG4RqXY9FUEn7hhAYykALKNbQNdWH1m026ENOXqGGQLQ968aZLw5dxcca3ATXH&#xA;C/6wQLo6MVdSrDqpFCMi5IIO4awJdirR3BB6HYj2yUZEGxsWvJjjOJjICUT0O4Qs+m28pqo9Jj3X&#xA;p/wP9M2un7Yyw2l6h9vzeO7T9h9JnuWL9zPy3j/penwI9yXXFlPBuw5J/Ou4+nw65v8ATa7Hm+k7&#xA;9x5vmva3s7qtCbyRuH86O8f2fFF+XvMuu+XdSTUtFvZLK8TpJGdmH8rqaq6+zAjMsxB5ukBp9Ofl&#xA;X/zkLo/mRodJ8xenpmuNRIpq8bW4bsFJJ9Nz/Kxoex3pmLkwkbhtjO3sWUtjsVdirsVdirsVdirs&#xA;VcSAKnpir54/Of8A5yCKNP5d8mXO4+C91qJvEENHbMPxkB/1fHMnHi6lqlPufO/xyP3d3PzJJy8k&#xA;AWeTGGOU5CMRcjyATK10tVo8/wATf777D5+Oc9re2P4cXz/U+m9g+w4FZdXuekP+KP6B8T0R+wFB&#xA;sBsAM0EpEmzzfSMeOMIiMQBEcgOTeBmynyn+WXnLzRxk02xKWZNDf3B9KAdqhiKvTvwDZk4dJkyc&#xA;ht3ul7S9oNJo9sk/X/NjvL9nxp6z5f8A+catJiVJNe1SW6l2LQWgEMYPdS7h2Ye4C5s8fZUR9Rv3&#xA;PD632+yyNYMYiO+W5+QoD7WfaV+Vf5e6WoFtoVq7A153Km5aviDOZKfRmbDR4o8oj73mNT7R6/N9&#xA;WWQ/q+n/AHNMmt7a2t4xFbxJDGuypGoVR8gKZkAAcnTzySmbkST5qmFio3VlZ3cZiuoI7iI7FJUV&#xA;1IO3RgciYg82zHlnA3EmJ8jTF9W/KX8u9TH7/Q7eFgCA9qDbEV70hKA/SDmPPRYpc4j7nc6b2m1+&#xA;H6csj/W9X+6t5/5g/wCcaLN1aTy/qzxPTa3vlDqT/wAZYgpUf7BswcnZQ/hPzeo0Xt/MbZ8YPnDb&#xA;7Dz+YeUeafy484+WSz6ppzi1U7XsP72AitAS61417B6HNbm0uTH9Q2e27O7e0ms2xTHF/NO0vkef&#xA;wtjWY7uGsINbhjKIkCCLBQN1piPV4KI/dOin5eH6s3ui7YI9OXcd/wCt877f9iITvJpPTLrDof6v&#xA;d7uXuStlZGKsCrDqDsc6OMhIWNw+XZcUscjGYMZDmC9y/Jv/AJyBuNJaDQPN07T6VQR2mqPV5Lfw&#xA;SXqzx9geq+46U5MV7hYz7305DNFNEk0LrJFIoeORCGVlYVDKRsQRmK3LsVdirsVdirsVdir50/P/&#xA;APOou1z5N8uTfAKxaxqEbEEkGjW0ZHbtIf8AY+OZOLH1LVOfR89xxvI4RBVj0GW5csYRMpGgGek0&#xA;mTUZBjxjinLkE6tLOO3Xb4pD9p/4D2zktf2jLMaG0O79b7V7O+zGLQRE5erOecu7yj+vmfsRGa16&#xA;lM/LvlrW/MWpJp2kWrXVy27BdlRehd2Pwqo8TlmLFKZqItw9dr8OlxnJllwx+/yA6l9CeRPyF8va&#xA;Isd5rwTWNTFD6bCtpGadFjb+8+b/APAjN5p+zow3l6j9j5Z2z7Z59RcMF4sf+yPx6e4fMvUlVVUK&#xA;oCqooqjYADsM2TxZN7lvFVk00MMTSzOsUSCryOQqgeJJ2GKsavvzS/Lmxk9O48x2AfoVjnSUg+/p&#xA;lqfTkhCXcjiCWj88vypJA/xDDv4xzj/mXh8KXcjiCYWf5q/lvdtwh8yaeGJoBJOkVT7eoUwcEu5P&#xA;EGSWl7Z3kAns547mBvsywurofkykjI0lWxVplVlKsAysKMp3BB7HFQa3DzDzz+Q3lrW0kutFC6Pq&#xA;ZqQsY/0WQ+DRD7HzT7jmu1HZ0J7x9J+x7Lsf2y1GnIjm/e4/P6h7j1+PzD568y+Vtd8tak2n6xat&#xA;bzjeNusci/zxuNmX/aO+aPLhljNSD6noO0cOrx+JilxD7R5EdEqypzlC6tI7hKH4XH2X7/I+2bDQ&#xA;9oSwGucO79TzXtB7N4e0IX9OYcpfol3j7vsSWWJ4nKOKMM67FljkiJRNgviet0WXTZTiyjhnH8fJ&#xA;7P8AkP8AnS/l+4i8s+YZydCnYLZXUh2tHY9GJ/3Sx/4E79K5HLjvcNMJ0+pwQRUdMxG52KuxV2Ku&#xA;xV5B+f8A+bB8r6V+gNHm46/qMZMkqH4ra3aoL1HSR+ieG58K3Ysd7lhOVPk5VZ2AG7MdvcnMqUhE&#xA;WeQYYsUskxCAuUjQCd2lolulOsjfbf8AgPbOO7Q1xzy2+gcv1vuPs17PQ7PxXLfNL6j3f0R5fefg&#xA;iM170zKvy+/LvWfOep/V7T9xYQEG9v3BKRqeyj9pz2X76DMnTaWWU0OXe6TtvtzD2fj4pbzP0x7/&#xA;ANQ831P5V8o6F5X0tNO0i3EUYoZpmoZZXApzkeg5H8B2AGdHhwxxiovi3aXaebWZPEymz0HQeQH4&#xA;805y5wGI+ePzU8meTIyurXnO+I5R6bb0kuG2qKrUBAexcgZOMDJiZU8C82/85N+dNTZ4dCii0S0N&#xA;QsgAnuSPd3HBa/5KVHjl8cIHNgZl5drHmTzBrUvq6vqVzfvWoNxK8gH+qGJA+jLQAOTG0twodirs&#xA;VRWnarqmmXAudNvJrK4XpNbyPE4/2SEHEi1eo+Uf+clPPWjskOr+nrtkKAiekVwB/kzIN/8AZq2V&#xA;Swg8mYmXv/kP83PJvnRFj065NvqVKvplzRJ9huU3KyD3U/OmY8sZizErZpkGSU+aPKuieZtKk03V&#xA;7cTQNvG42kifs8b/ALLD8ehqNsqzYY5I1Jzuzu0s2jyjJiNH7CO4jqPwN3y1+Yv5bax5L1EJP/pG&#xA;l3DH6lfqPham/CT+WQDt37Zzmq0ssR35d77P2F29i7Qx3H05I/VH9I7x+CxDMV3yhdWqXEdDs4+y&#xA;3gcztDrZYJf0TzDz3tB2Bj7QxUdssfpl+g/0T9nMJJJG8blHFGXYjOxx5IziJR3BfDNTpp4MkseQ&#xA;cM4miH0z/wA44/ms2p2q+TdZm5X9pHXSZ3O8sCDeGp6tEv2f8n/VynNjrcIhLo92zHbHYq7FUj86&#xA;+bNP8p+Wb3Xb41jtU/dRVoZZW2jjX3ZvuG+SjGzSCafDXmDXdS1/WrvWNSlM17eyGWV+wr0VR2VR&#xA;RVHYZnAUKccm1bTbQRp6zj944+H2U/1zmu19dxnw4/SOfv8A2PrPsV7P+DAarKP3kx6B3RPX3y+7&#xA;3o7NG+gsi8h+SdS8369Fplp+7hH7y8uyKrDEDu3ux6KO59qnL9PpzllQdT2z2tj0OA5J7nlEd5/H&#xA;Mvrby75e0ry9pEGlaXCIbWAUHTk7ftO525M3c50+LFGEeGPJ8N12uy6rKcuQ3KX2eQ8gmTMqqWYg&#xA;KBUk7AAZY4j57/Nn/nIwxvPonkmUErWO51sAEV6MtsD1/wCMh/2PZsyMeHqWuU+5883FxcXM7z3E&#xA;rzTysWklkYu7MepZjUknMhgiINLnk3k/dL77t37f1zV6ntbFj2HqPly+b1/ZXsXq9TUp/uYf0vq+&#xA;Ef10jotOtY6HjzYEGrb/AIdM0ubtfNPkeEeT3mh9idBh3mDll/SO3yFD52io/wB3UR/AD1C/CPwz&#xA;AnmnLnIn4vSYdBp8QqGOEfdEB2VOW6T94vGT418G3H45ZHNOPIkfFxcuiwZPrhCXviD96HlsLWQk&#xA;mMKTTdPh+4D4fwzOxdq54deL3/i3n9Z7G9n5xtDw5d8DX2bx+xAz6VKoLRHmP5Ts3f783Gm7Zxz2&#xA;n6T9jw3ansLqcAMsJ8WPdyl8uvwN+SEjknt5lkjZop4mBV1JV1ZTsQRuCDm3BBDxMomJoiiHv35U&#xA;f85GzRPBovnWT1ITSODWz9tewFyB9of5Y3/mr1yjJh6hlGfe+i4ZopokmhdZIpFDxyIQysrCoZSN&#xA;iCMx2xB63oml65pc+manAtxZ3C8ZI2/BlPVWU7gjpkMmMTFHk5Ok1eTT5BkxnhnH8fJ8n/mP+X2o&#xA;+TNaNrLym024LPp94R9tB1VqbB0r8X3985rVaY4pV06Pt3YPbePX4eIbZI/VHuP6j0+TE8xXeITU&#xA;LT1o+aCsqDYDuPD+mbjsrXeHLgl9MvsLw/tl7P8A5rF4+MfvsY3/AKUf1jp8u5L9N1G90zULbULG&#xA;UwXlpIs1vKvVXQ1U51RFvjj7i/LnztZ+c/KdnrVvxWZx6V9bqa+lcIB6ifLfkv8AkkZgTjwmnJib&#xA;DJsil2Kvlb/nJjz62r+Zk8s2cldO0U1ueJ2e8YfFX/jEp4/MtmXhhQtpyHd5Dp9t609WFY4929z2&#xA;GYvaWr8HHt9UuX63o/ZXsX89qhxD91j3l590fj9wKddc419zAVbS1ubu6htbaNprm4dYoYkFWZ3P&#xA;FVA8SThAJNBhkyRhEykajEWT5Prr8tvItp5P8uRWKhX1CekupXI6vLT7IP8AIleK/f1JzqNLpxih&#xA;XXq+F9vdsT1+oM/8mNoDuH6zzPy6MrzJdI+Y/wA+vzpfVp5vKvly4K6VCxTUr2M/70uOsSEf7qU9&#xA;T+0f8nrk4sdblqlJ4hDDJM4SMVPX2A8Tk82aOOPFI0HI0Ohy6rKMWIcUz+LPcE4tbKKAA/alpux/&#xA;hnJ63tKebYemHd+t9l7B9lMGhAnL95m/ndB/V/Xz93JE5rXq3Yq7FXYq7FXYq7FVC5tIbgfGKOOj&#xA;jqP65n6PtCeA7bx7nne3PZrT6+Nn0Zekx+nvH4BSae3kgco4+RHQ/LOs0+ohmjxRL4t2n2Xm0WU4&#xA;8oo9D0I7wfx5vXPyQ/Om48s3kWga9O0nlyduMMzksbNz0IP++j+0vbqO9Tlx3uObhRlT6tR0kRXR&#xA;g6OAyspqCDuCCMxW1I/O3lGw81+XbnSLuitIOdrcUqYZl+xIP1HxFRlGowjJAxLsuyO056LURyw6&#xA;cx3x6j9Xnu+PNU0y90vUbnTr6Iw3dpI0U8Z7Mppse4PY9xnLTgYkg8w+9afUQzY45IG4yFhC5FvS&#xA;fUrYRTc1FEk3AHY9xnX9l6vxcdH6o/gPiPtf2N+T1XFAfusu48j/ABD9I8j5PTv+ccvPh0DziNGu&#xA;5eOl66VgoT8KXQ/uX/2X939I8Mzs0LFvKwNF9b5ht6R+d/M0HljynqmuzUP1GBniRujyt8ESH/Wk&#xA;ZRkoxs0gmg+D7u7uby6mu7qQy3NxI0s8rbs7uSzMfck1zPcZOLOD0LdUIo5+J/Gp7fR0zjO0tT4u&#xA;U9w2D7v7K9l/k9HEEeufql8eQ+A+21fMB6R7N/zjr5LW71G4803kdYLEmDTwehnZf3j/AOwRqD3b&#xA;xGbbszBZ4z05Pn3t12twYxpoHee8v6vQfE/d5voTN4+WvHv+ciPzNfy5oi+XtLlKazq0Z9WRDRoL&#xA;Q1VmHcNIQVX6T1pl2GFm2Ey+VI43kcIgqzdBl+TJGETKWwDLTabJnyRx4xxTkaATy2tkgj4r9o7u&#xA;3ic43W62WeVn6egfduwOwsXZ+HhG+SX1S7/2Dp81txfQQVBPJ/5F339/DLdL2Zly7/THvLidse1u&#xA;k0RMP7zKP4Y9Peen2nyQZ1iXkeMScT0DVJH0grm3h2JiHMkvEaj/AIIGskfRCEB8SfvA+xr9MTmn&#xA;7qMb7kcq/ixyUuxcJ5GQa8Xt7ron1DHIe4j7iioNSt5TxasTHoGNR/wW2azU9j5MYuPqH2vW9k+3&#xA;Gm1BEMw8KZ+Mfn0+O3mi+mad7YFC3Go28J4j9446qvT6Tm20vZOTILl6Y/b8nju1/bXS6UmGMeLk&#xA;HcfSP879QKF/TEwJpElK7V5EgfQRm0h2JhHMyLx2b2+1sj6Y44j3E/ef0OGsS8hyiTiOoXkCfpJb&#xA;BPsTEeRIZ6f2/wBZE+uMJj4g/O6+xF29/BMQoPBz+y3c+xzU6nsrLiFj1R8v1PZ9k+2Wk1ZEJfus&#xA;h6S5H3S/XSpcQJPGUf6G7g5i6XVSwz4o/Ed7t+2OyMWvwnHk5/wy6xP45jqkc0LwytG/Ve46H3zt&#xA;MOaOSAlHkXwbX6HJpc0sWQVKJ/BHkX0n/wA41/mZJf2reTdVl5XVnGZNIlY/E8C/bh37x9V/yf8A&#xA;VyvNDq48D0e8ZQ2PCf8AnIzyUoNv5ttEoWK2uphR1P8AumU0H+wJP+Tmm7Uwcpj4vpXsJ2tz0sz/&#xA;AEof74fp/wBM8LzTPpKjdQevA0f7XVP9YdO4+WZvZ+p8LKD0OxdB7S9l/ndHKAHrj6o+8dPiNkjj&#xA;kkikWSNikiEMjqaEMDUEH2ztXwN91flv5rXzV5J0rW6gz3EIW7A2pcRH05duwLqSPbMCcaNOTE2H&#xA;lf8Azlb5kMGi6R5dichr2Vru5UH/AHXAOMYb2Z3J+a5dgjvbDIXzfYw+rdIpFVHxNtUUG+/z6ZHX&#xA;ZvDwyl16fF2ns7oPzWtx4yPTdy90dz8+XxTzOIfoFuON5HWONSzuQqqNySdgBhAYyIAs8n2f5K8u&#xA;x+XPK2m6MgHO1hUTsu4aZvjlYexkY0zq8GLw4CPc/P8A2trjq9TPMf4pbe7kPsTO/vrXT7G4vruQ&#xA;RWtpE888h6LHGpZj9AGXAOtfCfnTzRe+afM+oa7d1D3kpaOMmvpxD4Y4x/qoAMz4xoU0k2paZben&#xA;F6rD45OnXZf7c5rtnV8UvDHKPP3/ALH1n2F7FGLF+amPXk+nyj3/AOd93va1C+Mf7qI/vP2nH7Ps&#xA;PfJ9l9nCX7yY26D9LT7X+1MsROm05qX8ch0/ojz7z05c+RYiPIwVAWY9AM6Gc4wFyNB8xwYMmaYh&#xA;jBlM8gEdFpDn+9kCCn7I5Gvgd1GajL23jB9IMvse20nsBqpi8so4/L6j9m32rpNGAA9Obka7814i&#xA;n0FshDt2BO8SPtb8/wDwPM4jcMsZHzBj+tAzW8sLcZFp4Hsfkc22DUQyi4G3i+0OzNRo58GaJifs&#xA;PuPIrheXIi9LmeFKdq08K9crOixGfHw+pyYdvayOn/LjIfC7utd1868rWQwyzPxjXkep9vmcuzZo&#xA;YxxSNBwtFoM2qn4eGJnLy/T3fFHJo5KnnKFbsFXkPvJXNPk7cgD6Yk/Z+t7fTf8AA9zyF5ckYe4G&#xA;X/Euk0dgoMcoZt6hhx+4gthxduQJ9USPtY6v/gfaiAvFkjPyI4f1j7QgZYpInKSKVYf57ZuMWWMx&#xA;xRNh4jV6TLp5nHliYTHQo/Tr5mIglNSdo27/AOqf4Zo+1OzhRyQG/Ufpe/8AZD2okJDS6g3E7Qke&#xA;h/mnyPTu5cuS2pW3qw+ov24xX5r3/rmJ2Rq+CfAfpl9/7Xd+2/Yw1Gn8eA/eYufnDr/pefzQ2g61&#xA;f6HrVlq9g/C8sZVmhPYlTXi3irDYjuM6kixT46H3hoGs2et6LY6vZmtrfwJPFXqA6g8T7r0PvmCR&#xA;RpuCzzLodtr2gX+j3NPSvYWi5EV4sRVHHujUYfLKsuMTiYnq5mg1ktNnhljzhK/1j4jZ8WXlpcWd&#xA;3PaXCGO4t5GimjPVXRirD6CM5KUSDRfoTFkjkiJx3jIWPcVLA2JJqEXp3TbfC/xr9PXp71ztezs/&#xA;iYYnqNvk+Ce0+g/K67JEfTI8Q90t/sNj4PoP/nE7zGWh1vy3K/2CmoWqd6NSKb6No8szjq6TGWBf&#xA;85Ha0dS/NG9gDcotMhgs4/DZPWf7nlYZZhFRYzO7AtHj2lkIPZVPbxYfqzTdu5PTGPxfRf8AgeaW&#xA;8mXMegER8dz9wTLObfU2Y/lBoy6t+YmjwupaG3lN3LToPqymVa+xdVH05l6LHxZR8/k8/wC1Gr8D&#xA;QZCOchw/6bY/Zb65zp3wx5X/AM5I+Y20n8uZLOJ+NxrE6Wgp19IVllPyIQKf9bLcIuTCZ2fJMERl&#xA;mSPf4jQkCtB3P0DLs+UY4GR6Bv7P0h1OeGIfxyA/b8E7nlEEDyAABB8KjpXoPozjtLhOfMAeps/p&#xA;fdO2NbHs/QynDbgiIwHnyj8ufuCRfHI/dnc/MknO12iO4B8D9WSfWUpH4klO7S1W3joN3P228f7M&#xA;43X62Wef9Acg+6eznYGPs/CLF5pD1S/3o8h9vNXzAejdiqyWJJYzG4qp/A+Iy/T6iWKfFF13afZm&#xA;LW4TiyjY8j1B7wkps5RdfV/2idm7U/mzsBrYHF4v8P42fDp9haiOt/KV+8uvKv53urf9qcwQRwxh&#xA;EG3c9yc5HVaqWafFL4eT7b2R2Rh0GEY8Y3/il1ke/wDUOipmM7V2KqVzbpPEUbr1RvA5maLWSwTs&#xA;fT1Do+3uxMfaGAwO2QfTLuP6j1/WkLKyOVYUZTQj3GdrGQkLHIvgmXHLHMxkKlE0fIhPbSf1oEk2&#xA;5dHHuPo79c4zX4PBzEDlzD7v7O9o/ntFGc95fTP3j9Yo/FJrqH0bh4x0B+Heux3H4Z1ulzeJjjPv&#xA;D4r2vofyuqyYf5stvdzj9lPqb/nF7zE1/wCR7nSJW5SaPdFYx4QXAMi/8lPUyGcb24cDs9jylm+U&#xA;fzv0UaX+YuolE4Q34S9iHj6opIfplV85rtDHw5T57vtvsjq/G7PhZ3hcfly/2JDA8wnpkv1eKscc&#xA;oHQlWb5iqj8DnQ9hZfqh8fx9j5j/AMEPSf3WYecT94/3zMPyB1ptK/NLSKtSK+9SymHiJkPAf8jV&#xA;TN7lFxfNYHdjPn7UG1Hzxr96xr6+oXLJ7J6rBB9C0GSgKAYnmp6ajJZoSdpCzgfTx/41zlu2p3mr&#xA;uAfZfYPBwaDi/nzkfuH6EVmoe1ev/wDONNj6nmrU709Ley9L6ZpUIP3RnNp2VH1k+Twft9mrTY4f&#xA;zp38gf1vovN8+UPm3/nLLUWfVfL+mg/DDBPckeJmdUH/ACZOZOAc2ubxDSUU3JYmhRCV9ySF/Ucw&#xA;u2J8OCu8gfp/Q9Z7DYBk7QB/mQlL/e/75EavJSFI6bs3Kv8Aqin/ABtmv7Chc5S7h9/9j03/AAQ8&#xA;5GHFj/nSJ/0or/fITTU5XanjyCAsfbagP3kZte1MnDgl57PHeyOmGbtHGDyjcv8ASix9tJ1nGPuz&#xA;sVdirsVaoK1pv0r7ZLiNV0a/DjxcVDiqr613W3kWx2KuxV2KpRqqKtyGHV1Bb5io/UM67sfJxYK/&#xA;mmv0vintxpRi15kP8pES+P0n7rRGjsxilWvwqykD3YGv/Ecwu3YfTL3h3/8AwO9QazY/6sh9oP6F&#xA;DVwPrCECnwCp8TU75ldiTvCR3SdP7fYRHXCQ/jxj5gkfdT2H/nFLUjF5t1jTi1EurET08WglVR9N&#xA;JjmxzjZ4uD6fzFbXgH/OTdpEuqaFdgfvZoJ4mP8AkxOjL+MpzSdrR3iX0/8A4H2UnHlh0Eon5g/q&#xA;eKZqH0RC6kiNZuWO6UK/OoH6jm07HnWcDvB/X+h4/wBuMHH2dKX8yUT9vD/vkN5d1A6b5g0zUQaG&#xA;yu4LgHpT0pFf/jXOtIsPioQM8rTTSSsAGkYuwHSrGu2FCc6f/vHH8j+s5xvahvUS+H3B939kYiPZ&#xA;uL3S/wB1JEZr3pHuf/OMCgv5kbuBZD7/AF/6Zueyf4vh+l82/wCCEdsA/r/7x7vm5fNXyx/zlUzf&#xA;8rA05aniNJiIXsCbm4qfwzKwcmqfN5NpH9+/+r/EZq+3P7uP9b9D3n/A9/xrJ/wv/fBU1gbRH/W/&#xA;hlHYJ+v4fpdh/wAEaJrAf6/+8UtJkVbllPV0Kj51DfwzO7YF4D7w897ETA7RiD1jL7r/AEJvnIPt&#xA;rsVdirsVdirsVdirsVdiqVavUTp7pUfeR/DOp7EjWIn+l+gPj/8AwQMgOshEfw4x9spKujU9Offe&#xA;qbfQ2Vdun0xHmXM/4HcCcmaXdGI+ZP6naz/dwfN/+NcPYX0S97D/AIIf9/i/qH73of8AzjNI6fmd&#xA;GqnaSyuFf5fC361GbjN9L59Dm+t8xG14r/zk39X/AEVoXJa3Hrz+m/gnBeY+k8c1Ha1cMX0L/gfc&#xA;Xi5f5vDH52a/S+f80j6ipXMYktpVPZGbb/JBb+GZvZ0qzx97ofafHxdnZh/Rv5G0gztXwJ2Kp/au&#xA;HtoiBQBFX6VFD+rOK7RFZ5e9989l5X2dh/q/pKrmE797h/zjDMBdeYYa7ulq4HshlH/G+bjsk7y+&#xA;H6Xzj/ghR9OE+c/97+p71m6fM3zH/wA5X2ZTzTol5QUmsWhB7/uZmb/mdmTg5NU3jmkCs8m/RK/8&#xA;MB/HNd23G8IPdL9b2vsBl4ddKP8AOxn74n9aM1GNpLRgP2CHoBWtKg/ga5qux83Bmo/xCnsvbfQn&#xA;NoTOPPFLi+HI/ffwSi2mMM6SD9k708DsR92dPqMIyYzDvD5H2ZrTpdRDMP4JX8Oo+IT8EEAg1BFQ&#xA;fEHOFnAxJB5h+iMGaGWAnA3GQsHyLeRbXYq7FXYq7FXYq7FWqgbk0HcnYYQCTQYTnGETKRqI3KRX&#xA;cwmuHkH2SaL8hsM7jR4PCxCPd978+dt9ofnNXPN0kdv6o2H2JnpkXC1BIFXJbvWnQA/dXOd7ZzcW&#xA;XhH8I+19R9hdCcOiOQ88sr/zRsP0n4obWHPOKMjZQWB/1jT/AI1zYdhx/dyP9L9DzH/BCyXqsce7&#xA;Hfzkf1PUf+cXLMzfmJcz0+G106Z+R7M0sSD8GObXP9LwcOb6tzFbXhX/ADk9Pt5dgB/5a3Yf8iQv&#xA;8c03ax+ke/8AQ+k/8D2H99L+p/vnhWaZ9KWyf3M3/GKT/iBzK0P99D+sHT+0H+IZv+Fy+5judw/P&#xA;iI1G2+q6hdWtKehLJFStfsMV6/RiFTSwBFlCa9QT/wAMR/DOO7VjWol8Pufc/Y3Jxdm4/LiH+yP6&#xA;ERmueoeof847alHa+fntXan1+zmhjXxdCs3/ABCNs2PZk6y13h4z25wGeh4h/BMH4G4/eQ+ms6F8&#xA;feJf85U6G915S0vV0XkdNu2ikPhHdKAT/wAHEg+nLsB3phMPmaxkEd3GzdCeJqaAchStfauDX4vE&#xA;wyj5fdu7X2d1o02uxZD9PFR90vT9l2ne3cVHgdxnEgkGw+/TgJxMZCwdikt7am3l23jbdD/D6M7T&#xA;QawZ4X/EOb4P7Rdhz7PzmPPFLeB8u73j9qtp18EpDKaJ+w3hXsfbMPtPs7xPXD6vv/a7v2S9qPyp&#xA;Gnzn9yTsf5h/4k/ZzTXOXIfXwQRYdgS7FXYq7FXYq7FCWahfggwRHbo7jv7DOm7L7O4P3k/q6Duf&#xA;KPa/2oGa9NgP7v8Ajl/O8h5d56+7mFs7VriWn+613dvAeHzObHW6sYIcR59Hl+wexp6/UDGPoG8j&#xA;3D9Z6J4AAAAKAbADsM4qUjIknmX3zFijjgIRFRiKHuCTalJzu3FTSP4ADtSnUf8ABVzsuzcXBgiO&#xA;/f5vhXtXrBqO0MhH0xPCP83Y/bb6H/5xP0No9N13XXXa4lisoG/4wqZJPv8AVT7stznkHQwD33KG&#xA;x82f85H6kLjzpaWSPyWysk5r/LJK7Mf+E4ZoO1J3kA7g+ueweDh0cpn+OZ+QAH328ozWPbqN3J6d&#xA;tK1K1Ur/AMEOP8czuzY3nj73n/arJwdnZj/Rr5kD9KRAEkACpOwAztHwRlH5pacdO/MbzHakcQNQ&#xA;nkQeCTOZU6/5LjIwNxDKXNLdKYG2K8qsrn4fAECn41zme3IVlEu8fc+t/wDA+1HFpZ4/5s7+EgP0&#xA;go3NK98m/lDXW0HzPpmsAnjZ3CSShepirSVR/rISMtwZOCYl3OB2noxqdNPF/PiQPf0+19pI6Oiu&#xA;hDIwDKw3BB3BGdY/PhBBopN518tw+ZvKmqaFKQv16Bo43PRZR8UTn/VkVTkomjbEi3whd2tzZ3U1&#xA;pcxmK5t5GinibZkdCVZT7gimZ7QnFpcevArk/GNn+Y7/AE5xnaOl8LKQPpO4fePZftYa3SRJP7yH&#xA;pl7xyPxG/vtUlijljMbiqn7wfEZj6fUSwzEouy7U7Mxa3CcWQbHkeoPePx5JHc27wSFG3H7LeIzs&#xA;9NqY5ocUf7HwjtbsrLocxxZB7j0kO8fjZGaffgAQzGi9Ec9vY+2avtPs3j/eQ+rqO/8Aa9d7J+1X&#xA;gVptQf3f8Mv5vkf6P+593IzzmX1kF2KXYq7FXYoSy/v61hhO3R3Hf2GdJ2Z2Zw1kyDfoHyv2s9rP&#xA;EvTaY+jlKQ6/0Y+Xeevu5greB55AifSewHic2+o1EcUOKTxPZnZmXW5hixDc8z0A7ynkEKQxiNOg&#xA;6nxPic4zVamWafFL+x937I7JxaHCMWP4nrI95/GzVxMIYWkPUbKPFj0GT0WmObII9Ovuae3+1Bod&#xA;LLL/ABco/wBY8vlzPkEjjjlmlWONTJLIwVEUEszMaAAdyTnb8n5/JJNnm+5fy28qL5U8laXopAFx&#xA;DEHvCN63Ep5y796M1B7DMGcrNtwFBk3TIpfGfn3Xhr/nHVtWRuUNxcMLdulYY6RxH/kWi5ympyce&#xA;Qyff+xtF+W0mPEecY7+87y+0lIcodohdSdls2AGzlUJ8N+X/ABrm37Fhea+4fseK9vNRwaDh/nzA&#xA;+Vy/QFvk3TjqXm7RNPpUXd9bQsPZ5VBP3Z1UjQfGhzei/wDOTuiGx/MYagq/u9WtIpi3b1IqwMPo&#xA;WND9OV4D6WWQbvMdIkpJJHsAwBFetVPQffmr7bxXjEv5p+/8B7n2A1fBqp4jyyQ+2P7DJNc5Z9fd&#xA;ir6o/I3zWuu+SILWVwb7R6Wc61FTGo/cPTwKfD7lTnSdn5uPHXWOz4r7X9m/ltYZD6MvqHv/AIh8&#xA;9/cQ9CzOeWfMv/OTH5dtYaqnnDT4v9C1AiPU1UbR3IFFkNO0oG/+UPFsycM+jVMPE7K6NvLU1Mbb&#xA;OB+v6Mq12kGeFfxDk7r2e7al2fqBPnjltIeXf7x0+XVO1ZWAZTVT0IzjJwMSQdiH3jBnhmgJwPFC&#xA;QsFTngjmjKOPke4OXaXVSwy4o/2uB2v2Rh1+E48g/qy6xPeP0jqktxbyQScH/wBi3YjOy02pjmjx&#xA;R/sfC+1eys2hzHFlHuPSQ7wjNP1ClIZjt0Rz29j7Zqu0+zOO8mMerqO/9v3vYeyntX4NafUH93/D&#xA;L+b5H+j/ALn3cjPOZfWAXYpdihLL+/rWGE7dHcd/YZ0nZnZnDWTIN+gfK/az2s8S9Npj6OUpDr/R&#xA;j5d56+7mCggknkCIN+57AeJzcajURxR4pPE9mdmZtbmGLELJ5noB3lO7e3jgj4J/sm7k5xur1cs8&#xA;uKXwHc+6djdjYdBh8PHuT9Uusj+ruHRU9zsBuScx4xJNDm7PJkjjiZSNRG5KS31368tF/u02X398&#xA;7Hs/RDBDf6jz/U+Ge03bp7Qz3H+5htEf74+Z+wPXf+ccPy5fWtf/AMUX8X+4vSHH1QMNpbwUK09o&#xA;geR/yuPvmTmnQp56AfVGYrawb85fNi+XfJF36bhb/UgbK0HesgIkcU3+COu/81Mw9dm4MZ7zs9J7&#xA;K9m/mtZGx6Mfql8OQ+J+y3ydnMvt7sVS3WH3ij3BoWPgQdh+o50nYWKoyn3mnyr/AIIervLiwj+G&#xA;Jkf87Yfd9rOv+cddFbU/zRsJSvKLTYpr2X/Yp6Sf8lJVObrMai+eQG71r/nKby2b7yfY65EtZdIu&#xA;eEpA6QXQCkk+0iJ9+U4Jb0zyDZ8vWs3o3CSVoAfioKnidj+GT1OHxMco94crsnWnS6rHm/mSF+7r&#xA;9lp/nCkU/RMZAixydgZMx/KnzufKXmuG6mY/oy7At9RUVIEbHaSgrvG3xeNKjvmXo9R4U76Hm8/7&#xA;SdkfntKYj+8j6o+/u+PL30ej63jkjljWSNg8bgMjqagqRUEEdjnTAvhsokGjzCF1nR9O1rSrrStS&#xA;hFxY3kZinibup7g9iDuCOh3yQNMXxV+Zf5d6p5H8xSadchpbGWsmm3tKLNFXv2Dr0df4EZmwnxBp&#xA;Ipj1lftB+7f4oj96/LNf2h2cMwsbT+/3vV+zftPPQS4J+rATuOsfOP6R1TdWVlDKQytuCM5PJjlC&#xA;XDIUX2fS6rHqMYyY5CUD1CnPBHNGUcfI9wct0uqlhlxR/tcLtfsjDr8Jx5B/Vl1ie8fpHVJbi3kg&#xA;k4P/ALFuxGdlptTHNDii+F9q9lZtDmOLKPcekh3hGafqFKQzHbojnt7H2zVdp9mcd5MY9XUd/wC3&#xA;73sPZT2r8GtPqD+7/hl/N8j/AEf9z7uRnQ1p3zmX1i0sv7+tYYTt0dx39hnSdmdmcNZMg36B8r9r&#xA;PazxL02mPo5SkOv9GPl3nr7uYKCCSeQIg37nsB4nNxqNRHFAylyeI7N7Ny6zMMWIeo/IDvPl/ZzT&#xA;u3t44I+Cf7Ju5Ocbq9XLPLil8B3PuvY3Y2HQYfDx7k/VLrI/q7h0VCQASTQDqTsBmPCBkaAsuyzZ&#xA;4YoGcyIxHMlKb+/9asUW0Q6nu1P4Z1fZ3Zwwjil9f3PjXtP7US1x8LFtgHzl5ny7h8T5Hn5c/l/q&#xA;3nfzDHpdkDHbJSS/vCKrBDWhbtVj0Ve59qnNnOfCHjwLfavl7QNL8v6NaaPpcQhsbNBHEnc9yzHu&#xA;zHdj3OYRNm24BHsyopZiFVRVmOwAHc4EgXsHyb+bvnr/ABb5peS2cnSbAG308bgMK/HNQ95GH/Ah&#xA;a5zOt1Hiz2+kcn3D2Y7H/I6YCQ/ez3l+iPw++2EZhvRuxVI76US3TsPsg8Voaii7VHz652+hw+Hh&#xA;jHr+t+fvaHXfmtbkyD6eKh7o7D51b6N/5xQ8uGLStZ8xSpvdSpZWzHrwhHOQj2ZnUf7HJZ5dHVYw&#xA;9p8z6Dba/wCXtR0W52hv4HgLdeJZfhce6tRhlETRtsIt8Falp93puo3Wn3iGK7s5XguIz+zJGxVh&#xA;94zYA24yZWEwltl/mT4GG3bp+Gch2rp/DzEjlLf9b7f7G9p/mdEIk+vF6T7v4T8tvgic1j1jsVe9&#xA;fkN+Z6SRReUNYlpKnw6PcOdmX/lnYnuP91+3w9lB3XZ2r/ycvh+p8y9svZ4gnV4ht/GP99/xXz73&#xA;uGbh85STzj5O0Pzdoc2j6xD6kEnxRSrQSQyAfDJG3Zh+PQ7YYyINhBFvjv8AMX8sfMfkbUjBqEZm&#xA;0+Vj9S1OMH0ZR1oevBx3Q/RUb5mQmJNJFMWt7qaBqodj1U9DlOp0mPMKkPj1dp2V2zqNDPixS26x&#xA;P0n3j9PNM4NRt5dmPpt4Mdv+C6ffnOansjLDePqH2/J9S7K9ttJqBw5f3M/P6f8ATdPjXvVri3jn&#xA;i4v0O6MOor3GYmm1M9POx8Q7rtbsrT9pYOGRB6xmN6Pl3jvHVJJ4JIJCjjfqD2I8RnY6fURyw4o8&#xA;nw3tPs3LosxxZR6h8iO8eSoL+4Fv6FRx6cv2uNKca+GUnQYjk8SvV9nvc6PtHrI6X8sJ/u+X9Kv5&#xA;t939nJTggknkCIN+57AeJy7UaiOKPFJwuzOzM2tzDFiFk/IDvPkndtbJAgjjFSftN3Y5x2r1c887&#xA;PLoH3DsXsXD2dh4Y7yP1S7/1AdApzX9tEPtc2/lXf8emX6bsrLk3I4Y+f6nX9qe2Gj0oIifFyd0e&#xA;Xxly+VnySy5vZrg0Y8Y61CDp9PjnS6XQ48A9PPvfKu2O39Tr5fvDUByiOQ/WfM/Yyb8u/wAs/MXn&#xA;jUxbadGYrCJgL3UpAfRhXqR/lPTog/Ab5kzmIulAt9g+SfJGheTtDj0nSIuKD4ri4ehlmkpvJIw6&#xA;nwHQDYZhykSd24Ck/wAil4n+e/5npb28vlLR5q3Mw46tcIf7uM/8e4I/ab9vwG3c01HaOrocEfj+&#xA;p9D9jfZ4ykNVmHpH0DvP873Dp579N+A5pH1B2KqN3P6Nu0g2bon+sen3dczuz9P4uUDoNy8/7T9p&#xA;/k9FOQPrl6Y+8/qFn4JJBDNPNHBChkmlYJHGoqzMxoAAO5Odo+CPu/yD5Xi8reT9K0JKc7OBRcMO&#xA;jTv8czfTIxp7ZgTlZtyYign+RS+Xf+cnvIp03zBb+arSOlnq9Ir2g2W6jXY/89I1+9ScysErFNOQ&#xA;dXjWn3Poz0Y/u5Nm9j2OY3aWl8bFt9Q3D0Psr2x+S1YMj+7n6ZfoPw+606zjX3V2KW0d43V0Yq6k&#xA;MrKaEEbggjCggEUX0Z+UH5yRazHDoPmGYR6wtEtLxzRbkdArHtL/AMS+fXe6LXcfpn9X3vk/tR7K&#xA;nTk59OLxfxR/m/8AHfu9z13No8KhdU0rTdWsJbDUraO8spxxlgmUOhHyPcdj2xBpD57/ADB/5xhu&#xA;Ymlv/Jc3rxbsdIuWAkHtDMxAYeAeh/yjmTDN3sDDueG6xoes6LeNZatZTWN0vWKdGQkdKio3HuNs&#xA;vBBYUhI5pY6iN2QHqFJFaeOQyYoT+oA+9yNNrM2A3inKB/okj7m5p5Zm5SNyIFBsBt9GDFhhjFRF&#xA;BlrNfm1MhLNIzkBW/cp5Y4irBdTwV9JuPKhOwPTp1B8coz6XHlrjF07Ls/tbU6PiOCXBxc9on7wa&#xA;+Dpbm4lqJJGZSa8a0WvyG2HFp8eP6YgMNX2nqdR/e5JT95NfLkr6To2raxeLZaVZzX10/wBmG3Rp&#xA;Gp4kKDQe5y4mnBe5fl//AM4wXkzxX3nScW8Ao36JtnDSt7SzLVVHiEqf8oZRPN3MxDvfQuk6Rpmk&#xA;afDp+mWsdnZQDjFBEoVR49O57nvmMTbNF4peVfm/+b8Xl2KTRNDkWTXpFpNOKMtqpHU9jKey9up7&#xA;A63W63g9Mfq+57X2Y9lzqiM2YVhHIfz/APjveevIPmyWWWaV5pnaSWRi8kjkszMxqWYncknNATb6&#xA;5GIiAAKAW4GTsVSjU7j1JvTU/BHsfdu/9M67srS+Fj4j9Uvu6Pintl2x+b1XhwP7rFsPOX8R/QPd&#xA;5vUf+cbfIp13zgdduo66doPGVKjZ7tv7kf7Chf2IXxzOzSoU8lAWX1nmI3uxVI/OvlOw82eWL7Qr&#xA;34Y7uOkU1KmKVfijkH+qwB9xtkoyo2giw+GNd0XUdD1i80jUYvRvbKVoZ07VXup7qw3U9xvmcDYt&#xA;xyEVp136sfpsf3iD718c5ftbReHLxI/TL7D+19g9i+3hqMX5fIf3uMbf0o/rjy93xRmaZ7p2Ku6b&#xA;jFD2b8tvz7uLBYtK82M91aCiQ6oKvNGOn74dZFH8w+L/AFs22l7RMfTPcd75/wBvexkct5dLUZdY&#xA;dD/V7vdy9z3zT9RsNRs4r2wuI7q0mFYp4mDow6bEZuoyEhY3D5lnwTxTMJgxkOYKIyTUgtW0TR9Y&#xA;tTaarZQX9sf903EayqD0qAwND7jCCQinmuvf840/lxqTNJZJc6RKdwLaXnHX3SYS7eykZYM0gxMA&#xA;wq//AOcS7oMTp/mNHUnZJ7YoQP8AWSR6/wDAjJjP5I4Es/6FR8386fpjT+Fftfvq08acP45Lxwjg&#xA;TOx/5xLuiwN/5kjRR1WC1Lk/7J5Ep92ROfyTwM00H/nGf8udOZZL4XWryjqtzLwir4hIRGfoZjkD&#xA;mkUiAelaPoWi6Lai00mxgsLYf7qt41jBPieIFT7nKySebKkdgSsuLi3toJLi4kSGCJS8ssjBUVRu&#xA;WZjQADASALLKEJTkIxFyPIB4Z+ZX5+KyTaT5Qc/FVJ9YpQ07i3B3/wBmf9j2bNPqu0f4cfz/AFPp&#xA;HYHsXRGXVj3Q/wCK/wCJ+fc8Md3kdndizsSzMxqSTuSSc076QAAKDWBLsVQt/dehFRT+9fZd9x/l&#xA;Ztey9F4s+I/RH7T3PH+1/b35PB4UD++yDb+jHrL9A+fRLdO0+81G/t7Cyiae8upFht4V6s7nioH0&#xA;nOtJp8Ufcf5ceSbTyZ5Ss9Eh4vOg9W+nUf3tw+8jfIfZX/JAzAnLiNuTEUGTZFLsVdirxb/nIn8q&#xA;m17Tf8U6PDy1jTo6XsKD4ri2XeoHd4uo8V27AZfhyVsWucb3fLMcjxuHQ0Zehy/JjjOJjLcFOm1O&#xA;TBkjkxnhnE2CnlrcpcRc12I2dfA5xut0csE6/hPIvu3YHbuPtDDxDbJH6o9x7/cenyVswnfOxV2K&#xA;p55V87eZfK139Y0a8aFWIM1s3xQSU/njOx+fUdjl2HUTxm4l1vaXZGn1keHNG+4/xD3H8B7d5U/5&#xA;yM0C9VIPMds2mXFKG6hDTW5NNzxFZUqe1G+ebfD2pE7TFPnXaXsLnx+rTy8SPcdpfqP2e56lpOua&#xA;NrFv9Z0q+gvYe7wSK9Cd6NQ1U+xzZQyRkLibeL1OjzYJcOWMoHzFI7JuO7FXYq7FXYqhtQ1TTdNt&#xA;zc6jdw2duNjNPIsaV/1mIGRlMRFk03YNPkyy4ccTOXcBf3PM/NX/ADkL5T01Xh0WN9YuxUBwDFbg&#xA;9N3Ycm/2K0Pjmvzdpwj9PqL1/Z3sPqs1HMRij85fIbD4n4PEPOH5jea/Nkn+5W7ItAeUdhBWO3U9&#xA;vgqSxHYuSc0+fVTy/Udu59F7L7C0uiH7qPq/nHeXz6fCgxnMd3LsVdiqnPOkMZkfoOg8T4Zk6XSy&#xA;zT4R8fJ1XbHa2LQYDln/AJo/nHu/WkU0zzSGR+p7DoB4DO1w4Y44iMeQfBNdrcmqzSy5Dcpfih5B&#xA;9J/842/lW1lbr511iGl1coRo0LjdIWBDTkHvINk/yd/2hlWbJ0DVCPV73mO2OxV2KuxV2Kvl38/v&#xA;yabRbmbzXoENdHuH5ajaRj/eaVjvIoA2iY/8CfYimViyXsWmcerxSCeSCQOh36EdiPA4dRgjlgYy&#xA;5OX2b2jl0eYZcR9Q+RHcfJO4J0mjDp36jwPhnGarSywz4ZfDzfd+x+18WvwjJj5/xDrE936j1Vcx&#xA;nauxV2KuxVUtrq6tZ1ntZngnQ1SWJijqfZlIIwgkGw15McZjhkBIHod2XaZ+cP5kacgSLW5Zox+z&#xA;dKlwT/s5Vd/+GzKhrssf4nR6j2X7PymziAP9G4/YCB9jJbb/AJyR87xgCaz0+YAbn05lY/SJafhm&#xA;QO1MncHUZPYLRnlLIPjH/iUyT/nJvVwF56HbsRTkVmdQT3pVWpln8rS/muGf+B9i6ZZf6UfrW3v/&#xA;ADk1rbqRZaJbQP2M0skw6eCiH9eCXa0ukQyxf8D/AAg+vLI+4Af8UxbWPzy/MbUgyLfrYROKGOzj&#xA;WM/RI3OUfQ+Y0+0Msute53Wl9j+z8O/Bxn+kb+zaP2MJvtR1DULg3F/cy3dw32pp3aRz82ck5iSk&#xA;ZGybeiw4MeKPDCIjHuAofYh8i2uxV2KuxVZLKkSF3NFH+dBl2DBLLLhjzcHtHtHFo8Ry5TUR8ye4&#xA;eaS3V09xJyOyjZF8B/XOz0mljghwj4nvfCe2u2MuvzHJPl/DH+aP195eqfkT+T8nmzUV13WIiPLd&#xA;lJtGw/3rmTf0x/xWv7Z7/Z8aWZclbDm6uEbfWqqqqFUBVUUVRsAB2GYbe3irsVdirsVdiq2aGKaJ&#xA;4ZkWSKRSkkbgMrKwoVYHYgjFXyV+d/5MTeULxta0WJ5fLVw3xLuxtJGO0bnr6Z/YY/6p3oTmYsl7&#xA;Hm0TjTyu1unt5OS7qftp2IyvV6WOaHCfge52fY3a+XQZhkx8v4o9JD8cj0TuKWOVA8Zqp+8exzjM&#xA;+CWKZjLm+7dm9o4tZhGXEbifmD3HzX5S57sVdirsVdirsVdirsVdirsVdirsVdiq13VFLueKruSc&#xA;sxYpZJCMRZLi63W4tNiOXKeGEfx80ku7t7h69EH2VzstFoo4I0Pq6l8L7e7dy9oZeKW2OP0x7v2n&#xA;qXoH5OflFe+edUNxd87by7ZsPrl0BQysKH0Iif2iPtH9ke5GZGTJw+90sY2+wtP0+y06xgsLGFbe&#xA;ztkWKCCMUVEUUAAzDJtvRGBXYq7FXYq7FXYq7FVC/sLPULKeyvYUuLS5Ro54JByR0YUIIOIKvkD8&#xA;5vyhvPI+pm9sVaby1eSUtJyeTQuQT6Ep8djxbuPeuZuPJxe9olGnndpdPbyVG6H7S5j63Rxzxo8+&#xA;hdz2F25l7Pzccd4S+qPeP1joU7R1dA6GqtuDnHZsUscjGQ3D7potbi1OIZcR4oS/FHzXZU5bsVdi&#xA;rsVdirsVdirsVdirsVdiq1mVFLMQqruScnjxynIRiLJcfVarHp8ZyZDwwjzKTXt41w9B8MS/ZXuf&#xA;c52Oh0McEe+R5l8O9ovaDJ2jl/m4o/TH9J8/u5e+Z/lN+VWpefNYKVa20S0IOoXwHjv6UVdjIw/4&#xA;EbnsDl5MnCHn4xt9k6Po+maNplvpmmW6WtjaoI4IIxQKB+JJO5J3J3OYRNuQAjMCuxV2KuxV2Kux&#xA;V2KuxV2KoPWNH0zWdMuNM1O3S6sbpDHPBIKhgfxBB3BG4O4wg0pD43/Nr8qtT8h6wBVrnQ7xmOnX&#xA;tN9tzFLTpIo+hhuO4GbjycQceUaYXZXjW70NWib7S+HuMxNdoY5490hyL0Hs97QZOz8t/Vil9Uf0&#xA;jzH28vcdKysoZTyVtwR3zj8mOUJGMhRD7hpNXj1GMZMZ4oS5FvK3JdirsVdirsVdirsVdirsVaZl&#xA;VSzGgG5JycIGRAAslpz54YYGczwwjuSUmvb1rhuK7RL9lfH3OdfoNBHBGzvM8z+h8R9o/aPJ2hko&#xA;enBH6Y9/9KXn93zJkv5Z/lvq/nrXlsbUNDp8JDajqHGqQxnsK0q7Uoq/T0BzNnMRDzUY2+z/AC15&#xA;b0jy3otto2kwiCytV4oOrMx3Z3b9pmO5OYUpEmy3gUmeBLsVdirsVdirsVdirsVdirsVdiqW+YvL&#xA;ukeYtHuNI1e3W5sbleLoeoPZ0P7LKdwRhBINhBFvjL8zvyz1jyHrf1S6rPp1yWbTr8CiyovUMP2X&#xA;Wo5L/DM2ExINEo0xeyvWt24tvEx+JfA+IzC1+gGeO20xy/U9H7N+0U+z8lH1YZfVH/fDz+/5UcKy&#xA;uoZTVTuCM5DJjlCRjIUQ+36bU48+MZMZ4oS5FdkG92KuxV2KuxV2KuxVokAEk0A3JOSjEyNDclqz&#xA;ZoY4GczwxjuSUnvr0zNwQ/uh07V9867s/s8YY2frP2eT4p7Te0k9fk4IGsEeQ/nf0j+gdPenf5f+&#xA;Qda87a/FpWnKUiFHvb0gmOCKu7t0qT+yvc/Sc2E5iIeViLfaHk7yfonlHQoNG0iLhbxfFJI28ksp&#xA;A5SyHuzU+joNswpSJNlyAKTvIpdirsVdirsVdirsVdirsVdirsVdirsVSfzZ5T0TzVok+j6xAJrW&#xA;YVVhtJFIPsyRt+y6/wBh2qMlGRBsIIt8YfmL+XmteR9ek02/UyWshZtPvgKRzxA7EeDD9tex9qE5&#xA;sJiQaJRpj9jemBuLbxN1HgfEZgdoaAZ42PrHL9T03s17Rz7PycMrlgl9Q7v6Q8+/v+ScqysoZTUH&#xA;cEZyM4GJIIoh9twZ4ZoCcDxQluCG8g3OxV2KuxV2Kte52A3JPhkoxJNDm15MkYRMpGojckpTf33r&#xA;H04zSIdT/Mf6Z1nZ3Z4wjil9Z+x8Y9qPaaWun4eKxgj/ALI958u4fE78jPyR5I13zlrsWkaRFVz8&#xA;VxcNX0oIq0MkhHbwHUnYZspSERZeQAt9oeRPI2i+TNAh0jS0rx+K6umAEk8pHxSPT8B2G2YUpGRt&#xA;yAKZDkUuxV2KuxV2KuxV2KuxV2KuxV2KuxV2KuxV2KpH5y8m6H5u0ObR9Yh9SCT4opVoJIZAPhkj&#xA;bsw/HodslGRBsIIt8X+fvIWueStek0vU0rGavZXig+nPFXZ1Pj/MvY5mwmJBxyKSaxvjCRHJvEeh&#xA;/l/szXdodnjMOKO0x9r1nsz7TS0E/DyerBI7/wBHzH6R+lNwQQCDUHcEZyUomJo7EPtOHNDJATge&#xA;KMtwQ3kW12KuxVrCBewYykIgkmgEpv74ykxRn90OpH7R/pnVdm9nDEOOf1/d+18c9qvag6uRw4TW&#xA;Adf55/4nuHxPSh/k3ybrnm7XIdH0eH1J5PillaojhjB+KSRuyj8eg3zbSkALLxQFvs38vPy+0XyP&#xA;oKaXpwMkzkSX164o88tKcj/Ko6KvYe9ScKczIuRGNMoyCXYq7FXYq7FXYq7FXYq7FXYq7FXYq7FX&#xA;Yq7FXYq7FWP+ePI+hectCl0nVoqqfit7haerBLSgkjJ7+I6EbHJRkYmwgi3xl598ha75K119L1RK&#xA;qavZ3iA+lPFXZ0Pj/MvUHM2ExIOORST2F8YSI5DWI9D/AC/2Zru0ezxmHFH6x9r1vsx7TS0M/Dyb&#xA;4JH/AEvmP0j9PM39xuDuCM5KUSDR5vtOPJGcRKJuJ3BDeRbHYQEEgCyleoXwesMR+H9tx39h7Z1H&#xA;ZnZvh+uf1dB3ftfIfaz2p/Mk6fAf3I+qX8//AI796I8p+U9b81a3Bo+jwGa6mNWY7Rxxj7Ukjfso&#xA;v9g3zcSkALLwgFvs78uPy70fyNoCabYgS3clH1C/KgPPL4nrRFrRF7D3JJwpzMi3xjTK8gydirsV&#xA;dirsVdirsVdirsVdirsVdirsVdirsVdirsVdirsVSLzn5K0Hzfosuk6zAJImqYJ1oJYZKUEkTdmH&#xA;3HodslGRBsIIt8afmH+Xmu+R9cbTtRT1LeSrWN+gIinjB6jwYftL2+VCc2ExINEo0kdjf+j+7lqY&#xA;ux6lf7M1naPZozeqO0/vex9mPaqWh/dZblgPzj7vLvHxHmZfWrb0/U9VOPhUcv8AgftfhnP/AMnZ&#xA;7rhL6SPajs7h4vGjXxv5Vf2IC91EOpih+ydmfpUeA9s3nZ/Zfhnjn9Xd3ftfP/ab2vOqicOnsYj9&#xA;UusvLyj9pRHlPynrfmrW4NH0eAzXUxqzHaOOMfakkb9lF/sG+biUgBZeEAt9mflt+W2ieRdEFjYg&#xA;TXswDahqDCkk0g/4ii/sr2+dTmFOZkW+MaZbkGTsVdirsVdirsVdirsVdirsVdirsVdirsVdirsV&#xA;dirsVdirsVdiqT+bPKeieatEn0fWIBNazCqsNpIpB9mSNv2XX+w7VGSjIg2EEW+RvP35KedPKV3K&#xA;wtJNT0gEmHUrVC68P+LUXk0RHeu3gTmXDKC0SgQwBlZWKsCGBoQdiCMsYst8m/lX5282XccWm6dJ&#xA;HasQJNQuFaK2QdyXI+Kn8qVPtkJZAGQiS+uvy8/LvQvI+hrp2nJ6lzJRr6/cASzyAdT4KP2V7fOp&#xA;OJOZkW+MaZTkEuxV2KuxV2KuxV2KuxV2KuxV2Kv/2Q==</xmpGImg:image>
               </rdf:li>
            </rdf:Alt>
         </xmp:Thumbnails>
         <xmp:MetadataDate>2023-12-30T19:13:11+01:00</xmp:MetadataDate>
         <xmp:ModifyDate>2023-12-30T19:13:11+01:00</xmp:ModifyDate>
      </rdf:Description>
      <rdf:Description rdf:about=""
            xmlns:xmpTPg="http://ns.adobe.com/xap/1.0/t/pg/"
            xmlns:stDim="http://ns.adobe.com/xap/1.0/sType/Dimensions#"
            xmlns:xmpG="http://ns.adobe.com/xap/1.0/g/">
         <xmpTPg:MaxPageSize rdf:parseType="Resource">
            <stDim:w>529.036133</stDim:w>
            <stDim:h>625.855957</stDim:h>
            <stDim:unit>Pixels</stDim:unit>
         </xmpTPg:MaxPageSize>
         <xmpTPg:NPages>1</xmpTPg:NPages>
         <xmpTPg:HasVisibleTransparency>False</xmpTPg:HasVisibleTransparency>
         <xmpTPg:HasVisibleOverprint>False</xmpTPg:HasVisibleOverprint>
         <xmpTPg:PlateNames>
            <rdf:Seq>
               <rdf:li>Cyan</rdf:li>
               <rdf:li>Magenta</rdf:li>
               <rdf:li>Yellow</rdf:li>
               <rdf:li>Black</rdf:li>
            </rdf:Seq>
         </xmpTPg:PlateNames>
         <xmpTPg:SwatchGroups>
            <rdf:Seq>
               <rdf:li rdf:parseType="Resource">
                  <xmpG:groupName>Default Swatch Group</xmpG:groupName>
                  <xmpG:groupType>0</xmpG:groupType>
               </rdf:li>
            </rdf:Seq>
         </xmpTPg:SwatchGroups>
      </rdf:Description>
      <rdf:Description rdf:about=""
            xmlns:dc="http://purl.org/dc/elements/1.1/">
         <dc:format>image/svg+xml</dc:format>
      </rdf:Description>
      <rdf:Description rdf:about=""
            xmlns:xmpMM="http://ns.adobe.com/xap/1.0/mm/"
            xmlns:stEvt="http://ns.adobe.com/xap/1.0/sType/ResourceEvent#">
         <xmpMM:DerivedFrom rdf:parseType="Resource"/>
         <xmpMM:DocumentID>xmp.did:1C5A8D173FA7EE119340A017563E1103</xmpMM:DocumentID>
         <xmpMM:InstanceID>xmp.iid:1C5A8D173FA7EE119340A017563E1103</xmpMM:InstanceID>
         <xmpMM:OriginalDocumentID>xmp.did:1C5A8D173FA7EE119340A017563E1103</xmpMM:OriginalDocumentID>
         <xmpMM:History>
            <rdf:Seq>
               <rdf:li rdf:parseType="Resource">
                  <stEvt:action>saved</stEvt:action>
                  <stEvt:instanceID>xmp.iid:1C5A8D173FA7EE119340A017563E1103</stEvt:instanceID>
                  <stEvt:when>2023-12-30T19:13:11+01:00</stEvt:when>
                  <stEvt:softwareAgent>Adobe Illustrator CS6 (Windows)</stEvt:softwareAgent>
                  <stEvt:changed>/</stEvt:changed>
               </rdf:li>
            </rdf:Seq>
         </xmpMM:History>
      </rdf:Description>
   </rdf:RDF>
</x:xmpmeta>
                                                                                                    
                                                                                                    
                                                                                                    
                                                                                                    
                                                                                                    
                                                                                                    
                                                                                                    
                                                                                                    
                                                                                                    
                                                                                                    
                                                                                                    
                                                                                                    
                                                                                                    
                                                                                                    
                                                                                                    
                                                                                                    
                                                                                                    
                                                                                                    
                                                                                                    
                                                                                                    
                           
<?xpacket end="w"?>
	</metadata>
<g>
	<path fill-rule="evenodd" clip-rule="evenodd" fill="#FAFEFE" d="M0,260.244c-0.037,19.425,1.806,38.662,5.874,57.623
		c10.604,49.419,33.533,92.675,67.813,129.494c51.034,54.814,101.424,110.282,156.025,161.666c4.208,3.961,7.882,8.441,13,11.477
		c9.006,5.34,18.788,5.861,28.729,5.042c7.961-0.656,15.621-3.206,21.426-8.736c16.606-15.824,32.785-32.121,48.807-48.51
		c27.428-28.055,54.53-56.451,81.087-85.361c11.709-12.746,23.983-24.994,35.452-37.976c27.389-31.003,48.004-65.871,59.805-105.703
		c10.087-34.047,12.967-68.746,9.785-104.079c-1.279-14.206-4.087-28.023-7.845-41.74c-8.202-29.934-22.075-57.157-39.93-82.302
		c-14.424-20.316-31.715-38.041-51.616-53.213C387.46,26.706,341.608,7.267,290.438,1.489
		c-53.607-6.052-103.816,6.424-150.888,31.588c-34.789,18.597-64.082,43.898-88.02,75.578C17.552,153.624,0.091,203.911,0,260.244z"
		/>
	<path fill-rule="evenodd" clip-rule="evenodd" fill="#26334D" d="M0,260.244c0.09-56.333,17.551-106.62,51.53-151.589
		c23.938-31.679,53.231-56.981,88.02-75.578c47.072-25.164,97.281-37.64,150.888-31.588c51.17,5.778,97.021,25.217,137.975,56.436
		c19.901,15.173,37.192,32.897,51.616,53.213c17.854,25.145,31.728,52.368,39.93,82.302c3.758,13.717,6.565,27.535,7.845,41.74
		c3.182,35.333,0.302,70.032-9.785,104.079c-11.801,39.832-32.416,74.7-59.805,105.703c-11.469,12.981-23.743,25.229-35.452,37.976
		c-26.557,28.91-53.659,57.307-81.087,85.361c-16.021,16.389-32.2,32.686-48.807,48.51c-5.805,5.53-13.465,8.08-21.426,8.736
		c-9.942,0.819-19.723,0.298-28.729-5.042c-5.118-3.035-8.792-7.516-13-11.477c-54.601-51.384-104.991-106.852-156.025-161.666
		c-34.28-36.819-57.209-80.075-67.813-129.494C1.806,298.905-0.037,279.669,0,260.244z M210.985,31.266
		c-3.541,0.839-7.083,1.678-10.623,2.516c-10.697,4.01-21.467,7.789-32.085,12.059c-11.999,4.824-23.133,11.098-33.88,17.908
		c-31.179,19.754-56.341,45.725-76.305,76.752c-19.775,30.736-30.485,64.675-33.527,100.782
		c-2.531,30.044,1.057,59.714,9.282,88.895c9.75,34.591,25.746,65.778,49.649,92.506c30.327,33.91,61.332,67.228,93.308,99.596
		c15.09,15.275,29.392,31.294,44.873,46.222c8.769,8.456,16.75,17.851,25.351,26.567c7.087,7.184,15.65,9.204,25.271,6.364
		c5.626-1.661,9.751-5.658,13.732-9.715c19.804-20.18,39.016-40.928,58.623-61.29c29.016-30.136,58.049-60.25,86.641-90.791
		c23.17-24.747,43.138-51.487,55.608-83.479c9.158-23.49,14.771-47.813,17.311-72.631c1.667-16.287,1.181-32.917-0.723-49.405
		c-2.502-21.672-7.764-42.604-16.375-62.548c-14.311-33.142-35.114-61.578-62.571-85.288
		c-15.074-13.019-31.112-24.588-48.717-33.552c-16.028-8.161-32.916-14.715-50.27-19.823c-10.73-3.158-21.868-3.937-32.786-5.932
		c-19.287-3.525-38.421-1.398-57.594-0.061C227.019,27.488,218.919,29.086,210.985,31.266z"/>
	<path fill-rule="evenodd" clip-rule="evenodd" fill="#FE0101" d="M210.985,31.266c7.934-2.18,16.034-3.777,24.193-4.347
		c19.173-1.338,38.307-3.465,57.594,0.061c10.918,1.995,22.056,2.774,32.786,5.932c17.354,5.108,34.241,11.662,50.27,19.823
		c17.604,8.963,33.643,20.533,48.717,33.552c27.457,23.71,48.261,52.146,62.571,85.288c8.611,19.943,13.873,40.875,16.375,62.548
		c1.903,16.487,2.39,33.118,0.723,49.405c-2.54,24.818-8.152,49.141-17.311,72.631c-12.471,31.992-32.438,58.732-55.608,83.479
		c-28.592,30.541-57.625,60.655-86.641,90.791c-19.607,20.362-38.819,41.11-58.623,61.29c-3.981,4.057-8.106,8.054-13.732,9.715
		c-9.62,2.84-18.184,0.819-25.271-6.364c-8.601-8.717-16.582-18.111-25.351-26.567c-15.48-14.928-29.782-30.946-44.873-46.222
		c-31.976-32.368-62.98-65.686-93.308-99.596c-23.904-26.728-39.9-57.915-49.649-92.506c-8.225-29.181-11.813-58.851-9.282-88.895
		c3.042-36.107,13.751-70.046,33.527-100.782c19.963-31.028,45.126-56.998,76.305-76.752c10.747-6.81,21.881-13.084,33.88-17.908
		c10.618-4.27,21.388-8.049,32.083-12.06C206.496,32.33,207.571,32.147,210.985,31.266z M271.742,438.76
		c14.164,1.107,33.51-3.781,52.57-9.587c32.181-9.803,59.653-27.354,82.896-51.726c23.553-24.694,40.3-53.107,48.032-86.476
		c3.674-15.86,4.657-32.081,5.168-48.332c0.145-4.611-2.151-8.735-1.902-13.286c0.379-6.904-1.579-13.499-3.102-20.08
		c-3.6-15.556-9.067-30.43-16.723-44.538c-6.21-11.443-12.624-22.733-21.308-32.461c-19.394-21.729-40.868-40.627-67.671-53.282
		c-24.579-11.606-50.167-18.364-77.052-20.752c-12.31-1.093-24.627,0.18-36.687,2.278c-19.029,3.31-37.681,8.434-55.066,17.101
		c-33.737,16.82-61.15,40.88-81.771,72.554c-16.089,24.712-26.191,51.484-29.172,80.991c-2.281,22.587-0.956,44.849,5.29,66.582
		c12.15,42.278,36.582,76.21,72.13,101.933C182.587,425.156,221.983,438.44,271.742,438.76z"/>
	<path fill-rule="evenodd" clip-rule="evenodd" fill="#FAFEFE" d="M210.985,31.266c-3.007,0.776-4.451,1.054-10.625,2.515
		C203.903,32.943,207.444,32.105,210.985,31.266z"/>
	<path fill-rule="evenodd" clip-rule="evenodd" fill="#FAFEFE" d="M271.742,438.76c-49.759-0.32-89.155-13.604-124.366-39.081
		c-35.549-25.723-59.98-59.654-72.13-101.933c-6.246-21.732-7.571-43.994-5.29-66.582c2.981-29.507,13.083-56.279,29.172-80.991
		C119.75,118.5,147.162,94.44,180.899,77.62c17.386-8.667,36.038-13.791,55.066-17.101c12.059-2.098,24.376-3.371,36.687-2.278
		c26.885,2.388,52.473,9.146,77.052,20.752c26.803,12.655,48.277,31.553,67.671,53.282c8.684,9.729,15.098,21.018,21.308,32.461
		c7.655,14.108,13.123,28.981,16.723,44.538c1.522,6.581,3.48,13.176,3.102,20.08c-0.249,4.551,2.047,8.675,1.902,13.286
		c-0.511,16.25-1.494,32.472-5.168,48.332c-7.732,33.368-24.479,61.781-48.032,86.476c-23.243,24.371-50.716,41.923-82.896,51.726
		C305.252,434.979,285.906,439.868,271.742,438.76z M265.976,94.015c-9.912-0.341-19.708,0.338-29.38,2.304
		c-4.72,0.959-9.349,2.365-14.039,3.484c-55.76,13.302-113.275,68.567-116.838,138.287c-1.411,27.603,3.348,53.632,16.366,77.574
		c22.017,40.49,55.157,67.998,99.948,80.744c26.919,7.659,53.868,7.893,80.935,0.929c31.671-8.148,58.418-24.254,80.432-48.564
		c31.583-34.876,45.382-75.481,38.823-122.109c-5.036-35.802-21.573-66.134-48.773-90.099
		C342.802,109.568,307.468,93.813,265.976,94.015z"/>
	<path fill-rule="evenodd" clip-rule="evenodd" fill="#26334D" d="M265.976,94.015c41.492-0.202,76.826,15.553,107.472,42.55
		c27.2,23.964,43.737,54.296,48.773,90.099c6.559,46.628-7.24,87.233-38.823,122.109c-22.014,24.311-48.761,40.416-80.432,48.564
		c-27.066,6.964-54.016,6.73-80.935-0.929c-44.791-12.746-77.931-40.254-99.948-80.744c-13.018-23.942-17.776-49.971-16.366-77.574
		c3.563-69.72,61.079-124.985,116.838-138.287c4.69-1.119,9.319-2.525,14.039-3.484C246.268,94.353,256.063,93.674,265.976,94.015z
		 M170.072,238.062c0.159,4.717,0.268,9.318,1.151,13.968c2.501,13.164,9.438,23.713,18.617,33.005
		c23.429,23.72,46.945,47.354,70.365,71.083c2.996,3.036,5.352,3.017,8.388-0.055c24.37-24.653,48.975-49.079,73.243-73.831
		c18.938-19.314,23.597-49.058,10.068-72.457c-12.269-21.222-36.438-29.474-59.136-19.013
		c-10.582,4.877-17.485,13.556-23.703,22.981c-3.427,5.196-5.773,5.099-9.34,0.016c-2.583-3.68-5.088-7.426-7.86-10.959
		c-14.493-18.473-39.811-20.053-55.937-11.088C177.887,201.738,170.496,218.062,170.072,238.062z M265.297,117.631
		c-9.647,0.008-19.288,0.572-28.703,2.759c-34.673,8.059-62.795,26.177-84.159,54.815c-19.105,25.609-25.383,54.493-22.693,85.791
		c0.987,11.492,3.421,22.675,7.836,33.364c9.808,23.743,25.81,42.583,46.355,57.641c16.201,11.873,34.262,19.652,54.124,23.04
		c1.509,0.257,3.511,1.251,4.44-0.809c0.752-1.67-0.271-3.213-1.431-4.498c-0.558-0.619-1.151-1.205-1.735-1.799
		c-19.644-19.954-39.227-39.967-58.966-59.825c-6.599-6.639-12.575-13.786-18.447-21.036c-8.728-10.775-13.638-23.366-15.118-36.909
		c-3.019-27.625,4.48-51.862,25.715-70.775c16.21-14.436,35.32-19.266,56.617-16.005c12.098,1.853,22.179,7.832,31.241,15.679
		c3.307,2.863,5.915,2.807,9.055-0.223c23.968-23.124,64.088-21.235,89.024,1.742c31.042,28.604,31.896,79.417,6.098,109.744
		c-16.534,19.437-35.173,36.908-53.011,55.121c-8.513,8.692-17.207,17.207-25.799,25.823c-1.144,1.146-2.774,2.263-1.909,4.197
		c0.687,1.537,2.376,1.157,3.577,0.944c4.567-0.81,9.143-1.652,13.637-2.791c29.79-7.547,53.017-25.104,72.299-48.277
		c22.197-26.676,28.655-57.938,25.646-91.77c-0.77-8.661-2.246-17.195-5.081-25.396c-8.089-23.405-21.983-42.933-40.918-58.711
		C327.659,128.363,298.356,117.671,265.297,117.631z"/>
	<path fill-rule="evenodd" clip-rule="evenodd" fill="#FE0101" d="M170.072,238.062c0.424-20,7.815-36.324,25.856-46.35
		c16.126-8.964,41.444-7.384,55.937,11.088c2.772,3.533,5.278,7.28,7.86,10.959c3.567,5.083,5.914,5.181,9.34-0.016
		c6.218-9.425,13.121-18.104,23.703-22.981c22.698-10.46,46.867-2.208,59.136,19.013c13.528,23.399,8.87,53.143-10.068,72.457
		c-24.269,24.752-48.873,49.178-73.243,73.831c-3.036,3.071-5.393,3.091-8.388,0.055c-23.42-23.729-46.936-47.364-70.365-71.083
		c-9.179-9.292-16.115-19.842-18.617-33.005C170.339,247.379,170.23,242.778,170.072,238.062z"/>
	<path fill-rule="evenodd" clip-rule="evenodd" fill="#FE0101" d="M265.297,117.631c33.06,0.04,62.362,10.732,87.693,31.839
		c18.935,15.778,32.829,35.306,40.918,58.711c2.835,8.201,4.312,16.734,5.081,25.396c3.01,33.832-3.448,65.093-25.646,91.77
		c-19.282,23.174-42.509,40.73-72.299,48.277c-4.494,1.139-9.069,1.981-13.637,2.791c-1.201,0.213-2.891,0.593-3.577-0.944
		c-0.865-1.935,0.766-3.052,1.909-4.197c8.592-8.616,17.286-17.131,25.799-25.823c17.838-18.213,36.477-35.684,53.011-55.121
		c25.798-30.327,24.944-81.141-6.098-109.744c-24.937-22.977-65.057-24.866-89.024-1.742c-3.141,3.03-5.748,3.085-9.055,0.223
		c-9.063-7.847-19.144-13.826-31.241-15.679c-21.297-3.261-40.406,1.569-56.617,16.005c-21.235,18.913-28.734,43.15-25.715,70.775
		c1.48,13.543,6.39,26.133,15.118,36.909c5.873,7.25,11.848,14.397,18.447,21.036c19.74,19.858,39.323,39.871,58.966,59.825
		c0.584,0.594,1.178,1.18,1.735,1.799c1.159,1.285,2.183,2.828,1.431,4.498c-0.929,2.06-2.931,1.065-4.44,0.809
		c-19.862-3.388-37.923-11.167-54.124-23.04c-20.545-15.058-36.548-33.897-46.355-57.641c-4.415-10.689-6.849-21.872-7.836-33.364
		c-2.689-31.298,3.588-60.182,22.693-85.791c21.364-28.638,49.486-46.756,84.159-54.815
		C246.009,118.203,255.649,117.639,265.297,117.631z"/>
</g>
</svg>
